# xmcd
#
# Track frame offsets:
#	150
#	15354
#	30694
#	44391
#	56608
#	72715
#	89575
#	101697
#	115046
#	130083
#	149381
#
# Disc length: 2059 seconds
#
# Revision: 1
# Processed by: cddbd v1.5.1PL0 Copyright (c) Steve Scherf et al.
# Submitted via: audiograbber 1.83.01
#
DISCID=9808090b
DTITLE=Pru Clearwater - Lovechild
DYEAR=1900
DGENRE=Country
TTITLE0=Big Old World
TTITLE1=Kiss Me Stupid
TTITLE2=Blue Jeans Pie
TTITLE3=Ready Or Not
TTITLE4=Misty Mountain
TTITLE5=All That's Missing
TTITLE6=Man Trouble
TTITLE7=When You Love Somebody
TTITLE8=Mountain Rain
TTITLE9=When The Night Comes
TTITLE10=Lovechild
EXTD=
EXTT0=
EXTT1=
EXTT2=
EXTT3=
EXTT4=
EXTT5=
EXTT6=
EXTT7=
EXTT8=
EXTT9=
EXTT10=
PLAYORDER=
